<svg width="159" height="140" viewBox="0 0 159 140" fill="none" xmlns="http://www.w3.org/2000/svg">
<path opacity="0.4" d="M87.3953 140C126.543 140 158.278 138.147 158.278 135.862C158.278 133.576 126.543 131.723 87.3953 131.723C48.248 131.723 16.5128 133.576 16.5128 135.862C16.5128 138.147 48.248 140 87.3953 140Z" fill="#8A1114"/>
<path d="M66.6997 27.434C63.8519 29.7811 61.0698 33.5648 62.7003 37.6703C64.3308 41.7758 74.7645 42.1889 76.9579 40.4999C79.8095 38.3064 77.2906 28.5381 75.0679 28.4796C74.8997 24.8567 69.0797 25.4709 66.6997 27.434Z" fill="#263238"/>
<path d="M62.7113 66.9717C62.7113 66.9717 63.8555 87.7879 65.1168 99.0587C65.2447 109.642 67.6758 133.551 67.6758 133.551H70.3482C70.7979 121.688 74.0991 110.611 71.9056 100.148C77.0238 79.6025 73.5178 66.9863 73.5178 66.9863L62.7113 66.9717Z" fill="#FFB573"/>
<path d="M65.6213 66.9863C65.6213 66.9863 71.1233 90.0764 72.6295 99.9106C74.2161 110.242 76.5778 130.29 76.4681 133.544H78.7749C78.7749 133.544 82.6501 113.262 79.0637 100.276C82.0213 71.0297 74.7243 67.0083 74.7243 67.0083L65.6213 66.9863Z" fill="#FFB573"/>
<path d="M52.4275 40.2805C52.2556 39.0339 49.9671 38.9279 49.9671 38.9279L48.8704 38.3759C48.6778 38.258 48.447 38.2195 48.2267 38.2686C48.0064 38.3178 47.8138 38.4506 47.6895 38.6391L47.3239 39.2459C47.2175 39.4848 47.1998 39.7538 47.2742 40.0045C47.3487 40.2552 47.5102 40.4711 47.7297 40.6132L48.0624 40.8545C48.6284 41.259 49.298 41.4936 49.9927 41.5308L51.0054 41.5857C51.2277 41.5985 51.4506 41.5712 51.6634 41.5052C51.9154 41.426 52.1303 41.2585 52.2686 41.0335C52.407 40.8085 52.4595 40.5411 52.4165 40.2805H52.4275Z" fill="#FFB573"/>
<path d="M64.4807 47.5738C64.3418 47.7164 64.2686 47.7859 64.1663 47.8773L63.8775 48.1332C63.6874 48.294 63.4899 48.4439 63.2962 48.5938C62.9014 48.8863 62.4992 49.1568 62.0861 49.4127C61.2571 49.9116 60.3862 50.3373 59.4832 50.6849C57.6848 51.3845 55.7755 51.756 53.8459 51.7817H53.6777C53.5896 51.7798 53.5017 51.7725 53.4145 51.7597C53.2428 51.7346 53.0747 51.6892 52.9137 51.6245C52.6426 51.5127 52.3947 51.3516 52.1825 51.1492C51.9078 50.8793 51.6837 50.5623 51.5208 50.2133C51.2928 49.719 51.1223 49.2001 51.0127 48.6669C50.8188 47.7492 50.6966 46.8178 50.6471 45.8812C50.5481 44.0872 50.5847 42.2883 50.7568 40.4998C50.7771 40.2999 50.8702 40.1145 51.0184 39.9788C51.1666 39.8432 51.3595 39.7667 51.5604 39.764C51.7613 39.7613 51.9562 39.8325 52.108 39.9642C52.2597 40.0958 52.3578 40.2786 52.3836 40.4779V40.4998C52.581 42.2034 52.8077 43.9326 53.1147 45.5887C53.2501 46.3908 53.437 47.1833 53.6741 47.9613C53.7685 48.2796 53.8985 48.5862 54.0616 48.8753C54.1274 48.9813 54.1932 49.0325 54.164 48.9959C54.1156 48.9436 54.0554 48.9035 53.9885 48.8789C53.9292 48.852 53.8665 48.8336 53.802 48.8241H53.7033C54.4893 48.7523 55.2688 48.6228 56.0357 48.4366C56.7957 48.2468 57.541 48.0024 58.2658 47.7054C58.9876 47.3965 59.6832 47.0297 60.3459 46.6087C60.6786 46.404 61.0003 46.1883 61.3111 45.958C61.4646 45.8446 61.6109 45.7276 61.7571 45.6106L61.9691 45.4352L62.13 45.2926L62.225 45.2085C62.5438 44.923 62.9616 44.7732 63.3892 44.7912C63.8168 44.8092 64.2205 44.9936 64.5142 45.3049C64.8079 45.6162 64.9683 46.0299 64.9614 46.4579C64.9545 46.8858 64.7806 47.2941 64.477 47.5958L64.4807 47.5738Z" fill="#FFB573"/>
<path d="M66.2793 43.5159C63.3876 43.0333 60.3533 45.0002 58.7813 46.6014C57.9697 49.0435 60.569 52.012 60.569 52.012C60.569 52.012 64.2723 49.7381 65.6067 48.1844C66.941 46.6307 67.9464 43.7937 66.2793 43.5159Z" fill="#E0E0E0"/>
<path d="M75.2361 66.7083C75.2361 66.7083 79.316 69.6037 80.0837 79.2295C80.3908 83.0206 80.9428 98.1447 82.1053 104.652C77.9194 107.642 65.3873 107.233 63.4241 105.486C63.9798 92.3246 58.9494 74.8681 62.5979 66.84C68.6373 66.0978 75.2361 66.7083 75.2361 66.7083Z" fill="#263238"/>
<path opacity="0.2" d="M71.0977 94.3133C71.1525 88.7821 70.3373 81.1707 67.8623 76.6594C68.7068 82.2894 71.0977 94.3133 71.0977 94.3133Z" fill="black"/>
<path d="M60.6823 47.976C60.6823 51.109 58.1854 52.7541 61.0113 55.167C61.1795 57.8723 61.3769 62.7162 62.2068 67.1288C63.0659 68.3243 69.3466 68.2255 75.8722 66.8107C75.0204 63.027 75.3348 56.8633 77.5685 48.433C77.6875 47.9651 77.7085 47.4777 77.6304 47.0014C77.5523 46.525 77.3766 46.0699 77.1144 45.6646C76.8522 45.2592 76.5091 44.9124 76.1066 44.6459C75.7041 44.3793 75.2509 44.1987 74.7754 44.1155C74.238 44.0204 73.6787 43.9327 73.0865 43.8596C71.0456 43.5587 68.9857 43.4047 66.9228 43.3989C66.2574 43.3989 65.5664 43.4428 64.9084 43.4867C63.7652 43.5573 62.6919 44.0609 61.9068 44.8949C61.1217 45.7288 60.6838 46.8306 60.6823 47.976Z" fill="#E0E0E0"/>
<path d="M74.0136 53.4156L66.3548 55.15C66.0634 55.216 65.8807 55.5058 65.9467 55.7972L68.4263 66.747C68.4923 67.0384 68.7821 67.2212 69.0735 67.1552L76.7323 65.4208C77.0237 65.3548 77.2065 65.065 77.1405 64.7736L74.6608 53.8238C74.5948 53.5324 74.305 53.3496 74.0136 53.4156Z" fill="#8A1114"/>
<path d="M67.6795 47.4385C67.6795 47.4385 66.4402 48.9227 65.4166 49.2664L65.2996 49.9975C66.594 49.8322 67.7887 49.2161 68.6739 48.2574L67.6795 47.4385Z" fill="#8A1114"/>
<path d="M64.3125 46.5429C64.3125 46.5429 64.2613 48.4732 64.7951 49.4164L64.3966 50.0452C63.5348 49.0644 63.0456 47.8116 63.0147 46.5063L64.3125 46.5429Z" fill="#8A1114"/>
<path d="M72.8342 36.9062C72.3443 38.8511 71.7704 42.4375 73.0865 43.8523C73.0865 43.8523 68.184 45.1903 64.9888 49.5773C63.5265 44.9673 66.9374 43.3917 66.9374 43.3917C69.1711 43.0261 69.2003 41.3956 68.8932 39.8309L72.8342 36.9062Z" fill="#FFB573"/>
<path opacity="0.2" d="M71.2293 38.1016L68.8969 39.8381C68.9723 40.1992 69.0163 40.5661 69.0285 40.9348C69.8767 40.8763 71.0831 40.0391 71.222 39.1654C71.2861 38.8139 71.2886 38.4539 71.2293 38.1016Z" fill="black"/>
<path d="M75.1081 33.4405C74.1686 36.5918 73.8396 37.9481 71.8618 39.1874C68.8859 41.0483 65.2813 39.1326 65.2594 35.7473C65.2594 32.6984 66.7838 28.0701 70.1728 27.5656C73.5617 27.0611 76.0623 30.2855 75.1081 33.4405Z" fill="#FFB573"/>
<path d="M72.6514 28.8379C71.7631 31.8759 72.5235 35.0528 74.3367 35.4184C76.8556 34.4788 76.7313 31.6821 76.0879 30.4026C75.4445 29.1231 73.1632 27.0868 72.6514 28.8379Z" fill="#263238"/>
<path d="M74.0297 34.2959C72.6295 34.7602 72.3589 35.6997 72.3589 35.6997C72.3589 35.6997 73.3204 35.0197 74.2417 35.1477C74.108 34.8833 74.0355 34.5921 74.0297 34.2959Z" fill="#263238"/>
<path d="M70.531 33.1443C70.4689 33.4039 70.2824 33.5794 70.1106 33.5392C69.9388 33.499 69.8474 33.2467 69.9096 32.9871C69.9717 32.7276 70.1582 32.5484 70.33 32.5923C70.5018 32.6362 70.5786 32.8848 70.531 33.1443Z" fill="#263238"/>
<path d="M67.2883 32.3731C67.2262 32.6326 67.0397 32.8081 66.8679 32.7642C66.6961 32.7204 66.6047 32.4754 66.6669 32.2122C66.729 31.949 66.9154 31.7772 67.0873 31.821C67.2591 31.8649 67.3541 32.1099 67.2883 32.3731Z" fill="#263238"/>
<path d="M67.1677 31.8539L66.5791 31.5139C66.5791 31.5139 66.7875 32.0842 67.1677 31.8539Z" fill="#263238"/>
<path d="M67.9025 32.7971C67.5309 33.3324 67.0853 33.8125 66.5791 34.2229C66.6903 34.3517 66.8277 34.4552 66.9822 34.5264C67.1367 34.5977 67.3046 34.6351 67.4748 34.636L67.9025 32.7971Z" fill="#ED893E"/>
<path d="M75.1264 36.6028C74.9328 36.8301 74.6925 37.013 74.4219 37.1392C74.1512 37.2653 73.8566 37.3318 73.5581 37.3339C72.794 37.312 72.6624 36.4346 73.0828 35.7144C73.4484 35.0637 74.3112 34.2923 74.9765 34.6615C75.6419 35.0308 75.6455 36.0105 75.1264 36.6028Z" fill="#FFB573"/>
<path d="M71.1416 32.0257C71.1022 32.0062 71.072 31.9721 71.0575 31.9307C70.9988 31.7395 70.8972 31.5643 70.7603 31.4186C70.6234 31.2728 70.4549 31.1603 70.2678 31.0898C70.2274 31.0787 70.1929 31.0522 70.1718 31.016C70.1506 30.9798 70.1444 30.9368 70.1545 30.8961C70.1591 30.876 70.1678 30.8571 70.1801 30.8405C70.1923 30.824 70.2078 30.8101 70.2257 30.7998C70.2435 30.7896 70.2633 30.783 70.2837 30.7807C70.3042 30.7784 70.3249 30.7804 70.3446 30.7864C70.5838 30.8697 70.8001 31.008 70.976 31.1903C71.1519 31.3725 71.2825 31.5936 71.3573 31.8356C71.3646 31.855 71.3679 31.8757 71.3669 31.8964C71.3658 31.9172 71.3605 31.9374 71.3512 31.956C71.342 31.9746 71.3289 31.991 71.313 32.0042C71.297 32.0175 71.2785 32.0273 71.2585 32.033C71.22 32.0454 71.1782 32.0428 71.1416 32.0257Z" fill="#263238"/>
<path d="M66.1112 30.8156C66.0697 30.817 66.0292 30.8027 65.9978 30.7754C65.969 30.7455 65.9529 30.7055 65.9529 30.6639C65.9529 30.6224 65.969 30.5824 65.9978 30.5524C66.1608 30.364 66.3669 30.2177 66.5986 30.126C66.8303 30.0344 67.0807 30 67.3285 30.026C67.3703 30.0332 67.4076 30.0562 67.4328 30.0902C67.458 30.1243 67.4691 30.1668 67.4638 30.2088C67.4575 30.25 67.4351 30.287 67.4015 30.3117C67.3679 30.3364 67.3259 30.3467 67.2847 30.3404C67.0885 30.3208 66.8906 30.3492 66.7078 30.4231C66.525 30.497 66.3629 30.6141 66.2355 30.7645C66.2197 30.7815 66.2004 30.7948 66.1789 30.8037C66.1575 30.8125 66.1343 30.8166 66.1112 30.8156Z" fill="#263238"/>
<path d="M70.4031 32.6288L69.8145 32.2852C69.8145 32.2852 70.0229 32.8591 70.4031 32.6288Z" fill="#263238"/>
<path d="M70.213 58.5852L67.2883 58.0186L67.6174 61.3782C67.6174 61.3782 69.8109 61.2832 71.0611 60.2815L71.1781 59.8428C71.0429 59.1153 70.8783 58.8484 70.213 58.5852Z" fill="#FFB573"/>
<path d="M65.5299 59.4516L65.8699 60.8737C65.9196 61.078 66.044 61.2562 66.2186 61.3733C66.3932 61.4903 66.6053 61.5378 66.8131 61.5062L67.632 61.3782L67.303 58.0186L66.0563 58.4719C65.8638 58.5424 65.7039 58.6811 65.6069 58.8617C65.5099 59.0423 65.4825 59.2522 65.5299 59.4516Z" fill="#FFB573"/>
<path d="M76.7532 46.5722C77.6419 48.2741 78.4174 50.0327 79.0747 51.8366C79.4037 52.7395 79.7144 53.6645 79.963 54.6113C80.2341 55.5924 80.4176 56.5956 80.5114 57.6091C80.5333 57.876 80.5443 58.1501 80.548 58.428V58.5267V58.6839C80.5391 58.7916 80.5195 58.8982 80.4895 59.002C80.4358 59.2035 80.352 59.3957 80.2409 59.5723C80.0715 59.835 79.85 60.0602 79.5901 60.234C79.2723 60.4454 78.9214 60.6024 78.5519 60.6982C78.272 60.7756 77.9875 60.8354 77.7001 60.8774C76.7036 61.0027 75.6981 61.0407 74.695 60.9907C72.7933 60.903 70.9006 60.6757 69.0322 60.3107C68.8298 60.2772 68.6474 60.1686 68.5216 60.0066C68.3957 59.8447 68.3355 59.6412 68.353 59.4368C68.3706 59.2324 68.4645 59.0421 68.6162 58.9039C68.7678 58.7657 68.9659 58.6898 69.1711 58.6912C70.999 58.6583 72.8488 58.6108 74.6292 58.4755C75.4816 58.4164 76.3284 58.2942 77.1627 58.1099C77.333 58.0705 77.5004 58.0192 77.6635 57.9564C77.7444 57.934 77.8192 57.8941 77.8829 57.8394C77.8127 57.8809 77.7547 57.9402 77.7147 58.0112C77.6661 58.0882 77.6292 58.172 77.605 58.2598C77.5921 58.3091 77.5823 58.3592 77.5758 58.4097C77.5739 58.434 77.5739 58.4585 77.5758 58.4828C77.5758 58.2964 77.5429 58.1172 77.5136 57.9125C77.1939 56.2182 76.6952 54.5625 76.0257 52.9735C75.364 51.3247 74.6073 49.6467 73.8322 48.0638V48.0345C73.6751 47.652 73.6678 47.2242 73.8119 46.8366C73.9559 46.4489 74.2407 46.1297 74.6095 45.9425C74.9783 45.7553 75.4041 45.714 75.802 45.8266C76.1999 45.9392 76.5409 46.1976 76.7569 46.5503L76.7532 46.5722Z" fill="#FFB573"/>
<path d="M74.9655 44.2288C77.0603 44.6163 77.9926 46.4991 79.5134 50.2572C79.0491 52.7871 75.3311 54.1178 75.3311 54.1178C75.3311 54.1178 73.1961 50.334 72.7721 48.327C72.348 46.3199 72.8525 43.8376 74.9655 44.2288Z" fill="#E0E0E0"/>
<path d="M70.5384 133.581C70.5212 133.532 70.488 133.49 70.4441 133.463C70.4002 133.436 70.3483 133.424 70.2971 133.431L67.8184 133.394C67.5648 133.377 67.3115 133.432 67.0873 133.551C65.9526 134.26 64.6781 134.715 63.351 134.886C62.8246 134.966 63.0622 135.855 64.3052 135.869C66.3561 135.891 66.729 135.738 68.4801 135.756C69.9754 135.774 69.2625 135.84 70.4506 135.869C70.7358 135.869 70.9697 135.69 70.9332 135.504L70.5384 133.581Z" fill="#263238"/>
<path d="M79.0893 133.58C79.0716 133.532 79.0382 133.491 78.9945 133.464C78.9508 133.437 78.8992 133.425 78.848 133.431L76.8263 133.394C76.5726 133.376 76.319 133.43 76.0952 133.551C75.364 134.059 75.4664 134.648 73.7993 134.886C73.2729 134.966 73.5325 135.854 74.7754 135.869C76.8263 135.891 76.702 135.756 77.5356 135.756C78.3691 135.756 77.8573 135.84 79.0491 135.869C79.3342 135.869 79.5646 135.69 79.5207 135.503L79.0893 133.58Z" fill="#263238"/>
<path d="M66.3305 48.0016C67.3688 48.0454 69.2734 48.8973 69.884 49.8075C70.7467 48.9119 74.1174 46.8317 74.1759 44.0131C73.7633 43.6164 73.2435 43.3495 72.6807 43.2454C72.6807 43.2454 68.184 45.4206 66.3305 48.0016Z" fill="#FAFAFA"/>
<path d="M64.6488 47.8555C64.6488 47.8555 64.3673 45.5779 67.1238 43.3661C66.846 43.1395 65.7565 43.3954 65.7565 43.3954C65.7565 43.3954 62.5358 44.7809 62.6308 48.3673C63.2112 47.9405 63.9352 47.7569 64.6488 47.8555Z" fill="#FAFAFA"/>
<path d="M64.2394 48.8204C63.8409 49.0069 63.6837 50.3047 64.2394 50.6081C64.7951 50.9115 64.7402 49.6722 65.0619 49.2481C65.3837 48.8241 64.9376 48.495 64.2394 48.8204Z" fill="#8A1114"/>
<path d="M64.7293 49.325C64.4441 49.6906 64.8133 50.9336 65.4275 50.9299C66.0417 50.9262 65.5116 49.8332 65.6322 49.2921C65.7529 48.751 65.2155 48.6816 64.7293 49.325Z" fill="#8A1114"/>
<path d="M64.8133 50.2499C64.1297 49.1934 64.0822 54.7612 65.7383 56.9547C65.6286 54.7941 66.7875 51.7305 64.8133 50.2499Z" fill="#8A1114"/>
<path d="M64.7512 50.2023C64.4478 49.1275 62.9233 53.8362 63.7678 56.1357C64.2467 54.2749 66.0344 51.979 64.7512 50.2023Z" fill="#8A1114"/>
<path d="M69.8474 35.6413C70.0067 35.5719 70.1596 35.4887 70.3044 35.3927C70.3126 35.3845 70.3191 35.3748 70.3235 35.3642C70.3279 35.3535 70.3302 35.3421 70.3302 35.3305C70.3302 35.319 70.3279 35.3075 70.3235 35.2969C70.3191 35.2862 70.3126 35.2765 70.3044 35.2684C70.2892 35.2489 70.2672 35.2359 70.2428 35.2318C70.2185 35.2278 70.1935 35.233 70.1728 35.2464C69.8468 35.4651 69.4759 35.6078 69.0874 35.6641C68.6989 35.7204 68.3028 35.6889 67.9281 35.5718C67.9171 35.567 67.9052 35.5644 67.8931 35.5641C67.8811 35.5639 67.8691 35.5661 67.8579 35.5705C67.8467 35.5749 67.8365 35.5815 67.8278 35.5899C67.8191 35.5983 67.8122 35.6083 67.8075 35.6193C67.7992 35.6421 67.8004 35.6672 67.8107 35.6892C67.8209 35.7111 67.8395 35.7281 67.8623 35.7363C68.5131 35.9505 69.2201 35.9166 69.8474 35.6413Z" fill="#263238"/>
<path d="M59.2382 38.2185H40.5607V38.8254H59.2382V38.2185Z" fill="#8A1114"/>
<path d="M58.7922 38.8254H41.0067L41.789 39.2495H58.0099L58.7922 38.8254Z" fill="#8A1114"/>
<path opacity="0.2" d="M58.7922 38.8254H41.0067L41.789 39.2495H58.0099L58.7922 38.8254Z" fill="black"/>
<path d="M46.5453 21.9613C46.436 21.9603 46.3315 21.9165 46.2542 21.8392C46.1769 21.762 46.1331 21.6574 46.1322 21.5482V20.1626C46.1331 20.0534 46.1769 19.9488 46.2542 19.8716C46.3315 19.7943 46.436 19.7505 46.5453 19.7495C46.6545 19.7505 46.759 19.7943 46.8363 19.8716C46.9136 19.9488 46.9574 20.0534 46.9584 20.1626V21.5482C46.9574 21.6574 46.9136 21.762 46.8363 21.8392C46.759 21.9165 46.6545 21.9603 46.5453 21.9613Z" fill="#263238"/>
<path d="M47.2106 20.0785V19.8957C47.2106 19.718 47.0666 19.574 46.8889 19.574H46.2016C46.0239 19.574 45.8799 19.718 45.8799 19.8957V20.0785C45.8799 20.2561 46.0239 20.4002 46.2016 20.4002H46.8889C47.0666 20.4002 47.2106 20.2561 47.2106 20.0785Z" fill="#263238"/>
<path d="M47.207 24.97V21.018C47.207 20.975 47.1901 20.9337 47.1601 20.903C47.13 20.8722 47.0891 20.8545 47.0461 20.8535H46.0444C46.0014 20.8545 45.9605 20.8722 45.9304 20.903C45.9004 20.9337 45.8835 20.975 45.8836 21.018V24.97C45.8837 25.267 45.8209 25.5606 45.6992 25.8316C45.5776 26.1025 45.4 26.3446 45.178 26.542C44.9568 26.7407 44.7797 26.9836 44.6582 27.255C44.5367 27.5264 44.4734 27.8203 44.4724 28.1176V38.2552H48.6144V28.1176C48.6142 27.8201 48.5512 27.5261 48.4296 27.2546C48.308 26.9831 48.1306 26.7403 47.9089 26.542C47.6879 26.344 47.5112 26.1017 47.3902 25.8308C47.2693 25.5599 47.2068 25.2666 47.207 24.97Z" fill="#8A1114"/>
<path d="M48.6144 29.3167H45.8799V35.8715H48.6144V29.3167Z" fill="#E0E0E0"/>
<path d="M52.4969 38.2185H52.0034C52.1677 38.2296 52.3326 38.2296 52.4969 38.2185Z" fill="#8A1114"/>
<path d="M55.4764 38.2185H54.9792C55.1448 38.2295 55.3109 38.2295 55.4764 38.2185Z" fill="#8A1114"/>
<path opacity="0.2" d="M51.8352 30.4866V32.15C51.8352 33.4734 52.5883 34.5738 53.5425 34.709V37.6337C53.5425 38.0834 53.1038 38.2113 52.7638 38.2406H54.7123C54.3724 38.2113 53.9337 38.0834 53.9337 37.6337V34.709C54.8878 34.5774 55.6409 33.477 55.6409 32.15V30.4866H51.8352Z" fill="#8A1114"/>
<path d="M74.4866 28.922C73.0243 29.5435 68.1255 29.7336 66.2062 29.3168C68.1913 26.5128 72.6514 25.6903 74.4866 28.922Z" fill="#263238"/>
<path d="M79.0966 38.9388C79.0825 38.9386 79.0686 38.9352 79.0559 38.9288C79.0433 38.9225 79.0322 38.9134 79.0235 38.9023C78.976 38.8365 77.8975 37.2499 77.8756 33.0018C77.8756 31.2287 77.3309 29.803 76.4132 29.0828C76.1748 28.8858 75.8935 28.7474 75.5919 28.6789C75.2904 28.6103 74.9769 28.6134 74.6767 28.688C74.665 28.6906 74.6528 28.6909 74.6409 28.6888C74.629 28.6868 74.6177 28.6824 74.6075 28.6759C74.5973 28.6695 74.5885 28.6611 74.5816 28.6512C74.5746 28.6414 74.5697 28.6303 74.5671 28.6185C74.5644 28.6067 74.5641 28.5946 74.5662 28.5827C74.5682 28.5708 74.5726 28.5595 74.5791 28.5493C74.5855 28.5391 74.5939 28.5303 74.6038 28.5233C74.6136 28.5164 74.6248 28.5115 74.6365 28.5088C74.9627 28.4312 75.3024 28.4294 75.6294 28.5035C75.9564 28.5777 76.2621 28.7258 76.5229 28.9365C77.4917 29.6933 78.051 31.1739 78.062 32.9982C78.0839 37.1804 79.1588 38.7816 79.1588 38.7963C79.1658 38.8061 79.1708 38.8172 79.1735 38.829C79.1762 38.8407 79.1765 38.8529 79.1745 38.8648C79.1724 38.8767 79.168 38.8881 79.1616 38.8983C79.1551 38.9085 79.1467 38.9173 79.1368 38.9242C79.1246 38.9319 79.1109 38.9369 79.0966 38.9388Z" fill="#263238"/>
<path d="M105.404 17.417C106.424 18.8135 106.42 20.9887 106.073 22.1695C104.245 21.3397 104.53 18.9561 104.53 18.9561L105.404 17.417Z" fill="#263238"/>
<path d="M110.869 34.7015L111.922 35.8604L113.019 37.0376C113.75 37.8163 114.481 38.5767 115.234 39.3079C115.6 39.6735 115.965 40.039 116.357 40.3607C116.748 40.6825 117.088 41.0261 117.472 41.3222C117.856 41.6183 118.203 41.8816 118.543 42.1082C118.799 42.2799 119.068 42.4315 119.347 42.5615L118.788 42.4738C118.622 42.4538 118.454 42.4912 118.313 42.5798C118.313 42.5798 118.4 42.5798 118.525 42.5067C118.864 42.2988 119.179 42.0535 119.464 41.7755C120.213 41.0643 120.913 40.3033 121.559 39.498C122.257 38.6608 122.937 37.7688 123.613 36.8658C124.29 35.9628 124.966 35.0379 125.631 34.1276L125.664 34.0874C125.897 33.7799 126.231 33.5639 126.607 33.477C126.983 33.39 127.377 33.4377 127.722 33.6116C128.066 33.7856 128.338 34.0748 128.492 34.4289C128.645 34.783 128.669 35.1796 128.56 35.5497C128.19 36.7051 127.761 37.8411 127.277 38.9533C126.798 40.05 126.268 41.1467 125.668 42.2435C125.046 43.3842 124.327 44.4691 123.518 45.4862C123.036 46.0875 122.492 46.6364 121.895 47.124C121.5 47.4439 121.066 47.714 120.605 47.9283C119.927 48.2442 119.184 48.3969 118.437 48.3743C118.299 48.3691 118.162 48.3507 118.027 48.3194L117.874 48.2865C117.073 48.0946 116.298 47.8061 115.567 47.4274C114.954 47.1154 114.362 46.7649 113.794 46.3782C112.752 45.6766 111.757 44.906 110.818 44.0714C109.897 43.2708 109.041 42.4336 108.211 41.5818C107.802 41.1504 107.393 40.719 107.001 40.273C106.61 39.827 106.234 39.392 105.821 38.8838C105.36 38.2142 105.163 37.3976 105.268 36.5915C105.373 35.7853 105.773 35.0467 106.391 34.5181C107.009 33.9895 107.8 33.7082 108.613 33.7286C109.426 33.749 110.202 34.0695 110.793 34.6284L110.869 34.7015Z" fill="#E0E0E0"/>
<path d="M127.269 36.1018L130.527 36.259L129.47 31.8721C129.47 31.8721 126.439 32.0951 125.953 33.6525C125.902 33.8261 125.913 34.0119 125.982 34.1789L126.582 35.6156C126.639 35.7535 126.733 35.8724 126.855 35.9585C126.977 36.0446 127.12 36.0943 127.269 36.1018Z" fill="#FF8B7B"/>
<path d="M133.433 33.6561L132.804 32.1937C132.682 31.9103 132.463 31.6792 132.187 31.5414C131.91 31.4036 131.594 31.3679 131.294 31.4406L129.466 31.8903L130.523 36.2773L132.716 35.3926C132.879 35.3282 133.028 35.2316 133.153 35.1085C133.278 34.9855 133.377 34.8386 133.443 34.6765C133.51 34.5144 133.544 34.3405 133.542 34.1652C133.54 33.9899 133.503 33.8167 133.433 33.6561Z" fill="#FF8B7B"/>
<path d="M103.166 96.8542C99.7081 81.6423 97.5694 63.3011 97.5694 63.3011L111.75 63.0745C111.75 63.0745 111.553 87.7914 111.582 98.1447C111.619 108.911 112.364 132.604 112.364 132.604H108.062C108.062 132.604 102.508 110.161 103.166 96.8542Z" fill="#263238"/>
<path d="M102.062 75.866L99.8178 79.1928C100.487 83.3458 101.28 87.9192 102.205 92.4012C102.593 85.5136 102.527 77.5111 102.062 75.866Z" fill="black"/>
<path d="M118.104 134.714C118.104 134.714 112.178 133.317 111.732 132.377H108.442L108.464 135.861H110.496L110.807 135.54L111.323 135.861C112.968 135.861 117.34 135.796 118.375 135.426C118.395 135.294 118.381 135.159 118.334 135.034C118.286 134.909 118.207 134.799 118.104 134.714Z" fill="#263238"/>
<path d="M89.9763 96.4264C91.6178 81.1268 91.5666 70.9051 93.5663 63.3669L106.479 63.1731C106.479 63.1731 101.101 87.4404 98.604 97.5377C96.1071 107.635 91.8335 132.597 91.8335 132.597H87.8486C87.8486 132.597 86.5947 108.257 89.9763 96.4264Z" fill="#263238"/>
<path d="M92.5427 66.3462C92.2575 68.1741 91.2412 78.988 90.1883 82.9253C98.7978 86.7456 111.959 85.2431 112.364 82.7644C112.244 78.1727 111.999 66.3462 111.999 66.3462H92.5427Z" fill="#E0E0E0"/>
<path opacity="0.1" d="M93.0216 68.3533C93.6228 69.3275 94.3491 70.2186 95.1822 71.0037C95.1822 71.0037 93.325 70.6711 93.0216 68.3533Z" fill="black"/>
<path opacity="0.1" d="M110.328 70.9014C110.822 70.1654 111.222 69.3709 111.52 68.5361C111.52 68.5361 111.604 70.4043 110.328 70.9014Z" fill="black"/>
<path opacity="0.1" d="M93.102 69.7314C93.3006 70.4637 93.5943 71.1667 93.9758 71.8226C93.6278 71.6111 93.3559 71.2948 93.1989 70.9191C93.0419 70.5434 93.008 70.1276 93.102 69.7314Z" fill="black"/>
<path d="M95.5478 134.714C95.5478 134.714 91.8517 133.317 91.4277 132.377H88.1374L88.0716 135.861H90.766L91.084 135.54L91.5922 135.861C93.2373 135.861 94.7545 135.796 95.8 135.426C95.8249 135.296 95.8147 135.161 95.7704 135.036C95.7261 134.911 95.6492 134.799 95.5478 134.714Z" fill="#263238"/>
<path d="M93.091 32.8444C97.6535 32.2777 104.168 32.3326 108.537 33.0857C109.628 33.2836 110.63 33.8196 111.4 34.6181C112.171 35.4165 112.67 36.4368 112.829 37.5348C113.746 44.1335 112.957 55.664 112.372 67.2712C102.391 70.6857 91.8627 67.2236 91.8627 67.2236C91.4971 64.8839 92.316 57.2104 92.8644 53.1159C92.0418 48.8861 90.3053 44.0421 89.1428 38.4231C89.0017 37.7946 88.9941 37.1434 89.1205 36.5117C89.2469 35.88 89.5046 35.2819 89.8767 34.756C90.2489 34.2302 90.7273 33.7883 91.281 33.459C91.8347 33.1297 92.4513 32.9203 93.091 32.8444Z" fill="#263238"/>
<path opacity="0.1" d="M93.091 32.8444C97.6535 32.2777 104.168 32.3326 108.537 33.0857C109.628 33.2836 110.63 33.8196 111.4 34.6181C112.171 35.4165 112.67 36.4368 112.829 37.5348C113.746 44.1335 112.957 55.664 112.372 67.2712C102.391 70.6857 91.8627 67.2236 91.8627 67.2236C91.4971 64.8839 92.316 57.2104 92.8644 53.1159C92.0418 48.8861 90.3053 44.0421 89.1428 38.4231C89.0017 37.7946 88.9941 37.1434 89.1205 36.5117C89.2469 35.88 89.5046 35.2819 89.8767 34.756C90.2489 34.2302 90.7273 33.7883 91.281 33.459C91.8347 33.1297 92.4513 32.9203 93.091 32.8444Z" fill="white"/>
<path d="M97.606 24.1326L102.797 28.3916C102.125 30.1793 101.913 32.0474 104.844 32.753C105.576 33.7218 104.479 35.4217 103.177 36.0834C100.099 35.3815 98.3262 34.5553 97.1307 32.9138C97.5073 31.627 98.1068 26.7757 97.606 24.1326Z" fill="#FF8B7B"/>
<path opacity="0.2" d="M99.7702 25.9094L102.797 28.3881C102.633 28.8014 102.511 29.23 102.432 29.6676C101.258 29.7517 99.6277 28.5709 99.5545 27.496C99.5279 26.9584 99.601 26.4205 99.7702 25.9094Z" fill="black"/>
<path d="M96.8602 21.23C97.3355 24.4873 97.4451 26.4176 99.2401 27.9457C101.942 30.2452 105.861 28.3734 106.373 25.0211C106.83 22.0123 105.978 17.1903 102.662 16.1813C101.926 15.9575 101.146 15.9243 100.394 16.0849C99.6421 16.2455 98.9433 16.5945 98.3632 17.0993C97.7832 17.604 97.341 18.2479 97.078 18.9704C96.8151 19.693 96.7402 20.4705 96.8602 21.23Z" fill="#FF8B7B"/>
<path d="M96.8309 22.7325C97.1656 23.0952 97.598 23.3534 98.076 23.476C98.5541 23.5986 99.0574 23.5803 99.5253 23.4234C98.7429 22.6301 99.5033 19.7274 98.721 18.5466C100.235 18.8463 106.128 19.7018 106.691 17.6582C107.301 15.4647 104.863 13.7136 103.495 13.5491C103.898 14.463 103.861 15.1247 102.362 14.8286C100.863 14.5325 94.685 13.1067 95.3686 16.0021C93.3799 16.0021 93.2446 18.8975 94.6996 20.2831C95.4967 21.02 96.2113 21.8412 96.8309 22.7325Z" fill="#263238"/>
<path d="M95.7342 15.8631C94.5424 15.567 94.9153 14.4703 95.1822 14.3569C94.0671 14.6275 93.6614 15.7242 95.0067 16.2287C96.352 16.7332 95.7342 15.8631 95.7342 15.8631Z" fill="#263238"/>
<path d="M95.9426 23.2295C96.0535 23.5864 96.234 23.9178 96.4737 24.2046C96.7134 24.4913 97.0075 24.7278 97.3391 24.9002C98.2348 25.3572 98.8855 24.6041 98.8014 23.6609C98.732 22.8091 98.1873 21.5479 97.2075 21.4674C96.992 21.4567 96.7772 21.5001 96.5828 21.5938C96.3885 21.6875 96.2207 21.8285 96.0948 22.0038C95.969 22.1791 95.8891 22.3831 95.8625 22.5972C95.8359 22.8114 95.8635 23.0288 95.9426 23.2295Z" fill="#FF8B7B"/>
<path d="M101.434 21.347C101.456 21.6139 101.616 21.8186 101.799 21.804C101.982 21.7894 102.099 21.5554 102.077 21.2922C102.055 21.029 101.894 20.8206 101.711 20.8352C101.529 20.8498 101.412 21.0801 101.434 21.347Z" fill="#263238"/>
<path d="M104.621 21.2701C104.643 21.537 104.804 21.7417 104.987 21.7235C105.17 21.7052 105.283 21.4785 105.261 21.2116C105.239 20.9448 105.078 20.7437 104.896 20.7583C104.713 20.7729 104.6 21.0033 104.621 21.2701Z" fill="#263238"/>
<path d="M103.974 21.6284C104.359 22.4142 104.851 23.1426 105.437 23.7927C105.002 24.2752 104.183 24.1582 104.183 24.1582L103.974 21.6284Z" fill="#FF5652"/>
<path d="M100.94 20.4989C100.915 20.5059 100.888 20.5059 100.863 20.4989C100.844 20.4916 100.826 20.4805 100.811 20.4661C100.796 20.4518 100.784 20.4345 100.775 20.4153C100.767 20.3962 100.763 20.3756 100.763 20.3547C100.763 20.3339 100.767 20.3133 100.776 20.2941C100.863 20.0594 101.005 19.8489 101.19 19.6798C101.375 19.5107 101.598 19.388 101.839 19.3217C101.881 19.3134 101.923 19.3219 101.958 19.3452C101.993 19.3685 102.018 19.4048 102.026 19.446C102.034 19.4872 102.026 19.53 102.002 19.5649C101.979 19.5999 101.943 19.6242 101.902 19.6324C101.71 19.6866 101.535 19.7854 101.389 19.9208C101.243 20.0562 101.132 20.2243 101.064 20.4111C101.053 20.4351 101.035 20.4557 101.014 20.471C100.992 20.4864 100.967 20.4959 100.94 20.4989Z" fill="#263238"/>
<path d="M106.471 20.0747C106.445 20.0749 106.419 20.0682 106.396 20.0554C106.373 20.0426 106.354 20.0241 106.34 20.0016C106.242 19.8307 106.106 19.6855 105.941 19.5781C105.776 19.4706 105.588 19.404 105.393 19.3838C105.372 19.3833 105.352 19.3788 105.333 19.3704C105.314 19.3621 105.297 19.3501 105.283 19.3352C105.269 19.3202 105.257 19.3026 105.25 19.2834C105.242 19.2641 105.239 19.2436 105.239 19.2229C105.241 19.1809 105.26 19.1413 105.29 19.1126C105.321 19.0839 105.362 19.0684 105.404 19.0694C105.652 19.092 105.89 19.1734 106.1 19.307C106.31 19.4405 106.485 19.6223 106.61 19.8371C106.631 19.8728 106.637 19.915 106.628 19.9552C106.618 19.9953 106.594 20.0303 106.559 20.0528C106.533 20.0702 106.502 20.078 106.471 20.0747Z" fill="#263238"/>
<path d="M97.1307 32.9138C97.1307 32.9138 102.457 41.0078 104.483 46.7181C106.479 40.017 106.709 34.654 104.848 32.7529C104.249 33.5097 101.836 34.5333 97.1307 32.9138Z" fill="#E0E0E0"/>
<path d="M95.3138 38.8948L94.7983 40.3571L94.2865 41.8779C93.9465 42.8906 93.6358 43.9069 93.347 44.9049C93.2007 45.4058 93.0728 45.903 92.9558 46.3929C92.8388 46.8827 92.7255 47.369 92.645 47.8333C92.5646 48.2975 92.5025 48.7472 92.4623 49.1493C92.4414 49.4573 92.4414 49.7663 92.4623 50.0743L92.2722 49.5405C92.1186 49.2517 91.9614 49.1749 91.9541 49.1749C91.9468 49.1749 92.0053 49.248 92.1186 49.3285C92.4589 49.5292 92.8207 49.6911 93.1971 49.811C94.1693 50.1377 95.1622 50.3991 96.1693 50.5934C97.2404 50.8054 98.3445 50.959 99.4595 51.1418C100.575 51.3246 101.722 51.4525 102.826 51.6097H102.878C103.263 51.6649 103.617 51.8548 103.876 52.1457C104.135 52.4366 104.282 52.8099 104.292 53.1992C104.302 53.5886 104.174 53.9689 103.931 54.2728C103.687 54.5768 103.344 54.7847 102.962 54.8597C101.771 55.0858 100.569 55.2518 99.3608 55.3569C98.1544 55.4666 96.937 55.5214 95.705 55.5141C94.4059 55.5118 93.1094 55.398 91.8298 55.1741C91.0785 55.0339 90.3435 54.8171 89.6363 54.527C89.1652 54.3328 88.7205 54.0798 88.3129 53.7739C87.7122 53.3301 87.2239 52.7517 86.8871 52.085C86.825 51.9608 86.7748 51.8311 86.7373 51.6974L86.697 51.5476C86.4836 50.7517 86.3669 49.933 86.3497 49.1091C86.332 48.4221 86.3577 47.7347 86.4265 47.0509C86.5434 45.8018 86.7449 44.5621 87.0297 43.3403C87.2893 42.1485 87.6183 40.9969 87.9729 39.8599C88.1557 39.2933 88.3385 38.7303 88.5432 38.1709C88.748 37.6116 88.9527 37.0742 89.2049 36.471C89.5348 35.683 90.1583 35.0542 90.9435 34.7176C91.7287 34.381 92.614 34.363 93.4122 34.6673C94.2104 34.9717 94.859 35.5746 95.2207 36.3486C95.5824 37.1225 95.6289 38.0068 95.3504 38.8144L95.3138 38.8948Z" fill="#E0E0E0"/>
<path d="M103.346 52.0812L106.577 52.4833L104.793 56.6181C104.793 56.6181 101.843 55.8869 101.631 54.2637C101.61 54.0843 101.653 53.9031 101.752 53.7519L102.585 52.4395C102.665 52.3142 102.779 52.2141 102.914 52.1508C103.048 52.0874 103.198 52.0633 103.346 52.0812Z" fill="#FF8B7B"/>
<path d="M109.001 55.5433L108.131 56.8887C107.962 57.1472 107.707 57.3376 107.412 57.426C107.116 57.5143 106.798 57.4949 106.515 57.3712L104.793 56.6181L106.577 52.4834L108.592 53.73C108.739 53.821 108.867 53.9404 108.967 54.0813C109.068 54.2223 109.139 54.3818 109.177 54.5507C109.215 54.7195 109.219 54.8943 109.189 55.0647C109.159 55.2352 109.095 55.3979 109.001 55.5433Z" fill="#FF8B7B"/>
<path d="M97.3903 31.6562C96.7111 31.7641 96.0886 32.0992 95.6245 32.6068C97.0721 34.5386 99.1356 35.9185 101.474 36.5185C101.306 35.9591 101.81 34.325 102.366 33.7401C100.322 33.4366 97.3903 31.6562 97.3903 31.6562Z" fill="#FAFAFA"/>
<path d="M103.006 31.8574C103.699 31.9834 104.358 32.2537 104.94 32.6507C104.94 32.6507 106.987 34.9356 104.574 36.2261C104.738 35.6668 103.477 34.1752 102.348 33.7402C104.388 33.4367 103.006 31.8574 103.006 31.8574Z" fill="#FAFAFA"/>
<path d="M102.574 35.0416C100.958 34.1751 98.9586 33.2356 99.5143 34.7527C100.07 36.2699 99.3352 36.7963 100.059 37.3118C100.783 37.8273 102.253 36.4125 102.739 36.2151C103.225 36.0177 102.574 35.0416 102.574 35.0416Z" fill="#8A1114"/>
<path d="M103.718 35.0307C104.951 34.2008 106.493 33.3015 106.219 34.7821C105.945 36.2627 106.625 36.7782 106.087 37.279C105.55 37.7799 104.168 36.3797 103.729 36.1823C103.291 35.9849 103.718 35.0307 103.718 35.0307Z" fill="#8A1114"/>
<path d="M102.355 34.9247C102.72 34.7054 103.612 34.4275 104.055 35.0234C104.497 35.6193 104.355 36.6173 103.744 36.738C103.526 36.7821 103.3 36.7663 103.09 36.6922C102.88 36.6182 102.694 36.4887 102.552 36.3176C102.688 36.0991 102.742 35.8399 102.706 35.5853C102.67 35.3307 102.546 35.0969 102.355 34.9247Z" fill="#8A1114"/>
<path d="M92.0565 132.714L87.622 132.838L87.388 130.327L92.539 130.634L92.0565 132.714Z" fill="black"/>
<path d="M112.522 132.707L107.733 132.838L107.202 130.663L112.551 130.144L112.522 132.707Z" fill="black"/>
<path d="M102.084 51.2296C99.8449 50.5676 97.5359 50.1688 95.2041 50.0415C94.7069 50.0708 94.5168 61.3051 94.557 65.9004C94.557 66.5219 101.708 66.3976 103.536 66.1161C103.638 64.8329 103.66 55.4667 104.135 52.5384C104.172 52.3093 104.13 52.0747 104.017 51.8719C103.905 51.6692 103.727 51.51 103.514 51.4197C103.061 51.2371 102.569 51.1718 102.084 51.2296Z" fill="white"/>
<path d="M139.516 33.2466H119.219V33.8242H139.516V33.2466Z" fill="#8A1114"/>
<path d="M139.092 33.8242H119.643L120.389 34.23H138.35L139.092 33.8242Z" fill="#8A1114"/>
<path opacity="0.2" d="M139.092 33.8242H119.643L120.389 34.23H138.35L139.092 33.8242Z" fill="black"/>
<path d="M130.205 25.0867C130.206 25.2524 130.157 25.4147 130.066 25.5528C129.974 25.691 129.844 25.7988 129.691 25.8628C129.538 25.9267 129.369 25.9438 129.207 25.9119C129.044 25.88 128.894 25.8006 128.777 25.6836C128.66 25.5667 128.579 25.4175 128.547 25.255C128.514 25.0925 128.531 24.924 128.594 24.7708C128.657 24.6177 128.764 24.4867 128.902 24.3945C129.04 24.3024 129.202 24.2532 129.368 24.2532C129.477 24.2527 129.586 24.2739 129.688 24.3156C129.789 24.3573 129.882 24.4186 129.959 24.496C130.037 24.5735 130.099 24.6655 130.141 24.7669C130.183 24.8683 130.205 24.9769 130.205 25.0867Z" fill="#8A1114"/>
<path d="M138.142 30.5668C137.578 28.8212 136.506 27.2836 135.063 26.1506L135.29 25.8618C136.791 27.0406 137.906 28.6407 138.493 30.4572L138.142 30.5668Z" fill="#8A1114"/>
<path d="M133.795 25.3097C133.385 25.0835 132.959 24.8891 132.519 24.7284L132.643 24.3848C133.101 24.5568 133.544 24.7633 133.97 25.0026L133.795 25.3097Z" fill="#8A1114"/>
<path d="M129.368 25.0869C127.166 25.0869 125.054 25.9616 123.497 27.5186C121.94 29.0756 121.065 31.1873 121.065 33.3893H137.67C137.67 31.1873 136.795 29.0756 135.238 27.5186C133.681 25.9616 131.57 25.0869 129.368 25.0869Z" fill="#8A1114"/>
<path opacity="0.3" d="M122.21 32.647H124.356C124.43 32.6457 124.501 32.6188 124.558 32.5708C124.615 32.5228 124.653 32.4567 124.666 32.3837C125.098 30.1098 126.454 28.1284 128.611 26.4065C128.66 26.3672 128.695 26.313 128.71 26.2521C128.725 26.1913 128.721 26.1271 128.696 26.0692C128.672 26.0114 128.629 25.9631 128.575 25.9316C128.521 25.9001 128.458 25.8871 128.395 25.8947C126.764 26.11 125.247 26.8503 124.074 28.0038C122.901 29.1573 122.135 30.6614 121.892 32.2887C121.886 32.3337 121.89 32.3794 121.903 32.4228C121.917 32.4661 121.939 32.5061 121.969 32.5401C121.999 32.574 122.036 32.6011 122.078 32.6195C122.119 32.638 122.164 32.6473 122.21 32.647Z" fill="white"/>
<path d="M102.954 25.1087C103.125 25.1162 103.297 25.1076 103.466 25.0831C103.489 25.0787 103.509 25.0654 103.522 25.0463C103.535 25.0271 103.54 25.0035 103.536 24.9808C103.53 24.9569 103.515 24.9361 103.495 24.922C103.475 24.9079 103.45 24.9015 103.426 24.904C103.044 24.9608 102.654 24.9304 102.286 24.8152C101.917 24.6999 101.58 24.5028 101.298 24.2386C101.29 24.2299 101.28 24.2229 101.269 24.2182C101.258 24.2134 101.246 24.2109 101.234 24.2109C101.222 24.2109 101.211 24.2134 101.2 24.2182C101.189 24.2229 101.179 24.2299 101.17 24.2386C101.154 24.2561 101.146 24.2789 101.146 24.3026C101.146 24.3263 101.154 24.3491 101.17 24.3666C101.654 24.8243 102.289 25.0884 102.954 25.1087Z" fill="#263238"/>
</svg>
