<svg xmlns="http://www.w3.org/2000/svg" width="159" height="140" fill="none"><path fill="#8A1114" d="M87.395 140c39.148 0 70.883-1.853 70.883-4.138 0-2.286-31.735-4.139-70.883-4.139-39.147 0-70.882 1.853-70.882 4.139 0 2.285 31.735 4.138 70.882 4.138Z" opacity=".4"/><path fill="#263238" d="M66.7 27.434c-2.848 2.347-5.63 6.13-4 10.236 1.63 4.106 12.064 4.519 14.258 2.83 2.852-2.194.333-11.962-1.89-12.02-.168-3.623-5.988-3.01-8.368-1.046Z"/><path fill="#FFB573" d="M62.711 66.972s1.145 20.816 2.406 32.087c.128 10.583 2.559 34.492 2.559 34.492h2.672c.45-11.863 3.751-22.94 1.558-33.403 5.118-20.545 1.612-33.162 1.612-33.162l-10.807-.014Z"/><path fill="#FFB573" d="M65.621 66.986s5.502 23.09 7.008 32.925c1.587 10.331 3.949 30.379 3.84 33.633h2.306s3.875-20.282.289-33.268c2.957-29.246-4.34-33.268-4.34-33.268l-9.103-.022ZM52.428 40.28c-.172-1.246-2.46-1.352-2.46-1.352l-1.098-.552a.87.87 0 0 0-1.18.263l-.366.607a1.097 1.097 0 0 0 .406 1.367l.332.242a3.66 3.66 0 0 0 1.93.676l1.013.055a1.86 1.86 0 0 0 .658-.08 1.096 1.096 0 0 0 .754-1.225h.01Z"/><path fill="#FFB573" d="M64.48 47.574a5.514 5.514 0 0 1-.314.303l-.288.256c-.19.161-.388.31-.582.46a17.55 17.55 0 0 1-1.21.82c-.829.499-1.7.924-2.603 1.272a16.142 16.142 0 0 1-5.637 1.097h-.168a2.128 2.128 0 0 1-.764-.157 2.366 2.366 0 0 1-.732-.476 3.223 3.223 0 0 1-.661-.936 7.11 7.11 0 0 1-.508-1.546 18.095 18.095 0 0 1-.366-2.786 35.666 35.666 0 0 1 .11-5.381.818.818 0 0 1 1.627-.022v.022c.197 1.703.424 3.433.73 5.089.136.802.323 1.594.56 2.372.095.319.224.625.388.914.065.106.131.157.102.12a.451.451 0 0 0-.175-.116.697.697 0 0 0-.187-.055h-.099a16.088 16.088 0 0 0 2.333-.387c.76-.19 1.505-.435 2.23-.732a14.569 14.569 0 0 0 2.08-1.096c.333-.205.654-.42.965-.651.154-.113.3-.23.446-.347l.212-.176.161-.142.095-.084a1.642 1.642 0 0 1 2.252 2.387l.004-.022Z"/><path fill="#E0E0E0" d="M66.28 43.516c-2.893-.483-5.928 1.484-7.5 3.084-.811 2.443 1.788 5.411 1.788 5.411s3.703-2.274 5.038-3.828c1.334-1.553 2.34-4.39.672-4.668Z"/><path fill="#263238" d="M75.236 66.708s4.08 2.896 4.848 12.522c.307 3.79.859 18.915 2.021 25.422-4.186 2.99-16.718 2.581-18.68.834.555-13.161-4.476-30.618-.827-38.646 6.04-.742 12.638-.132 12.638-.132Z"/><path fill="#000" d="M71.098 94.313c.055-5.53-.76-13.142-3.236-17.654.845 5.63 3.236 17.654 3.236 17.654Z" opacity=".2"/><path fill="#E0E0E0" d="M60.682 47.976c0 3.133-2.497 4.778.33 7.191.167 2.705.365 7.55 1.195 11.962.859 1.195 7.14 1.096 13.665-.318-.852-3.784-.537-9.948 1.697-18.378a3.506 3.506 0 0 0-2.794-4.318 32.452 32.452 0 0 0-1.689-.255c-2.04-.301-4.1-.455-6.163-.461-.666 0-1.357.044-2.015.088a4.504 4.504 0 0 0-4.226 4.489Z"/><path fill="#8A1114" d="m74.014 53.416-7.66 1.734a.541.541 0 0 0-.407.647l2.48 10.95a.541.541 0 0 0 .646.408l7.66-1.734a.541.541 0 0 0 .407-.647l-2.48-10.95a.541.541 0 0 0-.646-.408Zm-6.334-5.978s-1.24 1.485-2.263 1.828l-.117.732a5.55 5.55 0 0 0 3.374-1.74l-.995-.82Zm-3.367-.895s-.052 1.93.482 2.873l-.398.63a5.56 5.56 0 0 1-1.382-3.54l1.297.037Z"/><path fill="#FFB573" d="M72.834 36.906c-.49 1.945-1.064 5.532.252 6.946 0 0-4.902 1.338-8.097 5.725-1.463-4.61 1.948-6.185 1.948-6.185 2.234-.366 2.263-1.996 1.956-3.561l3.941-2.925Z"/><path fill="#000" d="m71.23 38.102-2.333 1.736a6.4 6.4 0 0 1 .131 1.097c.849-.059 2.055-.896 2.194-1.77a3.08 3.08 0 0 0 .007-1.063Z" opacity=".2"/><path fill="#FFB573" d="M75.108 33.44c-.94 3.152-1.268 4.508-3.246 5.747-2.976 1.861-6.58-.054-6.603-3.44 0-3.049 1.525-7.677 4.914-8.181 3.389-.505 5.89 2.72 4.935 5.875Z"/><path fill="#263238" d="M72.651 28.838c-.888 3.038-.127 6.215 1.686 6.58 2.519-.94 2.394-3.736 1.75-5.015-.642-1.28-2.924-3.316-3.436-1.565Z"/><path fill="#263238" d="M74.03 34.296c-1.4.464-1.671 1.404-1.671 1.404s.961-.68 1.883-.552a1.973 1.973 0 0 1-.212-.852Zm-3.499-1.152c-.062.26-.249.435-.42.395-.172-.04-.264-.292-.201-.552.062-.26.248-.439.42-.395.172.044.249.293.201.552Zm-3.243-.771c-.062.26-.248.435-.42.391-.172-.044-.263-.289-.201-.552.062-.263.248-.435.42-.391.172.044.267.289.201.552Z"/><path fill="#263238" d="m67.168 31.854-.589-.34s.209.57.589.34Z"/><path fill="#ED893E" d="M67.903 32.797a6.904 6.904 0 0 1-1.324 1.426 1.191 1.191 0 0 0 .896.413l.428-1.839Z"/><path fill="#FFB573" d="M75.126 36.603a2.08 2.08 0 0 1-1.568.73c-.764-.021-.896-.898-.475-1.619.365-.65 1.228-1.422 1.894-1.053.665.37.668 1.35.15 1.942Z"/><path fill="#263238" d="M71.142 32.026a.168.168 0 0 1-.084-.095 1.309 1.309 0 0 0-.79-.841.16.16 0 0 1-.042-.29.151.151 0 0 1 .119-.014 1.616 1.616 0 0 1 1.012 1.05.152.152 0 0 1-.006.12.148.148 0 0 1-.093.077.16.16 0 0 1-.116-.007Zm-5.031-1.21a.164.164 0 0 1-.113-.04.16.16 0 0 1 0-.224 1.548 1.548 0 0 1 1.33-.526.165.165 0 0 1 .136.183.157.157 0 0 1-.18.131 1.216 1.216 0 0 0-1.049.425.161.161 0 0 1-.124.05Zm4.292 1.813-.589-.344s.209.574.59.344Z"/><path fill="#FFB573" d="m70.213 58.585-2.925-.566.33 3.36s2.193-.096 3.443-1.097l.117-.44c-.135-.727-.3-.994-.965-1.257Z"/><path fill="#FFB573" d="m65.53 59.452.34 1.422a.84.84 0 0 0 .943.632l.819-.128-.329-3.36-1.247.454a.837.837 0 0 0-.526.98Zm11.223-12.88a43.682 43.682 0 0 1 2.322 5.265c.329.902.64 1.827.888 2.774.271.981.455 1.985.548 2.998.022.267.033.541.037.819v.256a2.074 2.074 0 0 1-.307.888c-.17.263-.391.488-.65.662a3.428 3.428 0 0 1-1.04.464 7.057 7.057 0 0 1-.85.18c-.997.125-2.003.163-3.006.113a38.876 38.876 0 0 1-5.663-.68.815.815 0 0 1 .14-1.62c1.827-.033 3.677-.08 5.457-.216.853-.059 1.7-.18 2.534-.365.17-.04.337-.09.5-.154a.57.57 0 0 0 .22-.117.464.464 0 0 0-.168.172.927.927 0 0 0-.14.399.47.47 0 0 0 0 .073c0-.187-.032-.366-.061-.57a24.347 24.347 0 0 0-1.488-4.94 73.932 73.932 0 0 0-2.194-4.91v-.029a1.645 1.645 0 0 1 2.925-1.484l-.004.022Z"/><path fill="#E0E0E0" d="M74.966 44.229c2.094.387 3.027 2.27 4.547 6.028-.464 2.53-4.182 3.86-4.182 3.86s-2.135-3.783-2.559-5.79c-.424-2.007.08-4.49 2.194-4.098Z"/><path fill="#263238" d="M70.538 133.581a.226.226 0 0 0-.24-.15l-2.48-.037a1.366 1.366 0 0 0-.73.157 9.291 9.291 0 0 1-3.737 1.335c-.526.08-.289.969.954.983 2.051.022 2.424-.131 4.175-.113 1.495.018.782.084 1.97.113.286 0 .52-.179.483-.365l-.395-1.923Zm8.552-.001a.23.23 0 0 0-.242-.149l-2.022-.037a1.338 1.338 0 0 0-.73.157c-.732.508-.63 1.097-2.297 1.335-.526.08-.267.968.976.983 2.051.022 1.927-.113 2.76-.113.834 0 .322.084 1.514.113.285 0 .516-.179.472-.366l-.432-1.923Z"/><path fill="#FAFAFA" d="M66.33 48.002c1.039.043 2.943.895 3.554 1.805.863-.895 4.233-2.975 4.292-5.794a2.925 2.925 0 0 0-1.495-.768s-4.497 2.176-6.35 4.757Zm-1.681-.147s-.282-2.277 2.475-4.489c-.278-.227-1.367.03-1.367.03s-3.221 1.385-3.126 4.971a2.767 2.767 0 0 1 2.018-.511Z"/><path fill="#8A1114" d="M64.24 48.82c-.4.187-.556 1.485 0 1.788.555.303.5-.936.822-1.36.322-.424-.124-.753-.823-.428Z"/><path fill="#8A1114" d="M64.73 49.325c-.286.366.083 1.609.697 1.605.615-.004.085-1.097.205-1.638.12-.541-.416-.61-.903.033Z"/><path fill="#8A1114" d="M64.813 50.25c-.683-1.057-.73 4.511.925 6.705-.11-2.16 1.05-5.224-.925-6.705Z"/><path fill="#8A1114" d="M64.751 50.202c-.303-1.075-1.828 3.634-.983 5.934.479-1.861 2.266-4.157.983-5.934Z"/><path fill="#263238" d="M69.847 35.641c.16-.07.313-.152.457-.248a.088.088 0 0 0 0-.125.099.099 0 0 0-.131-.022 2.624 2.624 0 0 1-2.245.326.093.093 0 0 0-.07-.002.092.092 0 0 0-.05.05.091.091 0 0 0 .054.116c.651.215 1.358.18 1.985-.095Z"/><path fill="#8A1114" d="M59.238 38.218H40.561v.607h18.677v-.607Zm-.446.607H41.007l.782.424h16.22l.783-.424Z"/><path fill="#000" d="M58.792 38.825H41.007l.782.424h16.22l.783-.424Z" opacity=".2"/><path fill="#263238" d="M46.545 21.961a.417.417 0 0 1-.413-.413v-1.385a.416.416 0 0 1 .413-.413.417.417 0 0 1 .413.413v1.385a.417.417 0 0 1-.413.413Z"/><path fill="#263238" d="M47.21 20.078v-.182a.322.322 0 0 0-.321-.322h-.687a.322.322 0 0 0-.322.322v.182c0 .178.144.322.322.322h.687a.322.322 0 0 0 .322-.322Z"/><path fill="#8A1114" d="M47.207 24.97v-3.952a.165.165 0 0 0-.16-.165h-1.003a.165.165 0 0 0-.16.165v3.952a2.101 2.101 0 0 1-.706 1.572 2.126 2.126 0 0 0-.706 1.576v10.137h4.142V28.118a2.115 2.115 0 0 0-.705-1.576 2.11 2.11 0 0 1-.702-1.572Z"/><path fill="#E0E0E0" d="M48.614 29.317H45.88v6.554h2.734v-6.554Z"/><path fill="#8A1114" d="M52.497 38.218h-.494c.165.012.33.012.494 0Zm2.979 0h-.497c.166.011.332.011.497 0Z"/><path fill="#8A1114" d="M51.835 30.487v1.663c0 1.323.753 2.424 1.707 2.559v2.925c0 .45-.438.577-.778.607h1.948c-.34-.03-.778-.158-.778-.607v-2.925c.954-.132 1.707-1.232 1.707-2.559v-1.663h-3.806Z" opacity=".2"/><path fill="#263238" d="M74.487 28.922c-1.463.622-6.361.812-8.28.395 1.984-2.804 6.444-3.627 8.28-.395Zm4.61 10.017a.093.093 0 0 1-.073-.037c-.048-.066-1.127-1.652-1.148-5.9 0-1.773-.545-3.199-1.463-3.92a1.977 1.977 0 0 0-1.736-.394.092.092 0 0 1-.04-.18 2.195 2.195 0 0 1 1.886.428c.969.757 1.528 2.238 1.539 4.062.022 4.182 1.097 5.784 1.097 5.798a.091.091 0 0 1-.022.128.1.1 0 0 1-.04.015Zm26.307-21.522c1.02 1.396 1.016 3.572.669 4.752-1.828-.83-1.543-3.213-1.543-3.213l.874-1.539Z"/><path fill="#E0E0E0" d="m110.869 34.702 1.053 1.158 1.097 1.178a69.043 69.043 0 0 0 2.215 2.27c.366.365.731.731 1.123 1.053.391.322.731.665 1.115.961.384.296.731.56 1.071.786.256.172.525.324.804.454l-.559-.088a.73.73 0 0 0-.475.106s.087 0 .212-.073c.339-.208.654-.453.939-.731a22.906 22.906 0 0 0 2.095-2.278 64.266 64.266 0 0 0 2.054-2.632 275.66 275.66 0 0 0 2.018-2.738l.033-.04a1.65 1.65 0 0 1 2.896 1.462 36.198 36.198 0 0 1-1.283 3.403 41.168 41.168 0 0 1-1.609 3.29 22.553 22.553 0 0 1-2.15 3.243 10.989 10.989 0 0 1-1.623 1.638 6.21 6.21 0 0 1-1.29.804 4.792 4.792 0 0 1-2.168.446 2.176 2.176 0 0 1-.41-.055l-.153-.033a10.164 10.164 0 0 1-2.307-.859 16.24 16.24 0 0 1-1.773-1.049 28.125 28.125 0 0 1-2.976-2.307 43.386 43.386 0 0 1-2.607-2.49 45.34 45.34 0 0 1-1.21-1.308 47.099 47.099 0 0 1-1.18-1.39 3.293 3.293 0 0 1 .57-4.365 3.29 3.29 0 0 1 4.402.11l.076.074Z"/><path fill="#FF8B7B" d="m127.269 36.102 3.258.157-1.057-4.387s-3.031.223-3.517 1.78a.793.793 0 0 0 .029.527l.6 1.437a.786.786 0 0 0 .687.486Z"/><path fill="#FF8B7B" d="m133.433 33.656-.629-1.462a1.308 1.308 0 0 0-1.51-.753l-1.828.45 1.057 4.386 2.193-.884a1.308 1.308 0 0 0 .826-1.228 1.312 1.312 0 0 0-.109-.509Z"/><path fill="#263238" d="M103.166 96.854c-3.458-15.212-5.597-33.553-5.597-33.553l14.181-.227s-.197 24.717-.168 35.07c.037 10.767.782 34.46.782 34.46h-4.302s-5.554-22.443-4.896-35.75Z"/><path fill="#000" d="m102.062 75.866-2.244 3.327c.669 4.153 1.462 8.726 2.387 13.208.388-6.887.322-14.89-.143-16.535Z"/><path fill="#263238" d="M118.104 134.714s-5.926-1.397-6.372-2.337h-3.29l.022 3.484h2.032l.311-.321.516.321c1.645 0 6.017-.065 7.052-.435a.774.774 0 0 0-.271-.712ZM89.976 96.426c1.642-15.3 1.59-25.52 3.59-33.06l12.913-.193s-5.378 24.267-7.875 34.365c-2.497 10.097-6.77 35.059-6.77 35.059h-3.985s-1.254-24.34 2.127-36.17Z"/><path fill="#E0E0E0" d="M92.543 66.346c-.286 1.828-1.302 12.642-2.355 16.58 8.61 3.82 21.771 2.317 22.176-.162-.12-4.591-.365-16.418-.365-16.418H92.543Z"/><path fill="#000" d="M93.022 68.353a13.082 13.082 0 0 0 2.16 2.65s-1.857-.332-2.16-2.65Zm17.306 2.548c.494-.736.894-1.53 1.192-2.365 0 0 .084 1.868-1.192 2.365Zm-17.226-1.17c.199.733.492 1.436.874 2.092a1.926 1.926 0 0 1-.874-2.092Z" opacity=".1"/><path fill="#263238" d="M95.548 134.714s-3.696-1.397-4.12-2.337h-3.29l-.066 3.484h2.694l.318-.321.508.321c1.645 0 3.162-.065 4.208-.435a.748.748 0 0 0-.252-.712Zm-2.457-101.87c4.563-.566 11.077-.511 15.446.242a5.29 5.29 0 0 1 4.292 4.449c.917 6.599.128 18.129-.457 29.736-9.981 3.415-20.51-.047-20.51-.047-.365-2.34.454-10.014 1.002-14.108-.822-4.23-2.559-9.074-3.721-14.693a4.603 4.603 0 0 1 3.948-5.579Z"/><path fill="#fff" d="M93.091 32.844c4.563-.566 11.077-.511 15.446.242a5.29 5.29 0 0 1 4.292 4.449c.917 6.599.128 18.129-.457 29.736-9.981 3.415-20.51-.047-20.51-.047-.365-2.34.454-10.014 1.002-14.108-.822-4.23-2.559-9.074-3.721-14.693a4.603 4.603 0 0 1 3.948-5.579Z" opacity=".1"/><path fill="#FF8B7B" d="m97.606 24.133 5.191 4.259c-.672 1.787-.884 3.655 2.047 4.361.732.969-.365 2.669-1.667 3.33-3.078-.701-4.85-1.528-6.046-3.17.376-1.286.976-6.137.475-8.78Z"/><path fill="#000" d="m99.77 25.91 3.027 2.478a6.692 6.692 0 0 0-.365 1.28c-1.174.084-2.804-1.097-2.877-2.172a4.362 4.362 0 0 1 .215-1.587Z" opacity=".2"/><path fill="#FF8B7B" d="M96.86 21.23c.475 3.257.585 5.188 2.38 6.716 2.702 2.3 6.621.427 7.133-2.925.457-3.009-.395-7.83-3.711-8.84a4.537 4.537 0 0 0-5.802 5.049Z"/><path fill="#263238" d="M96.83 22.733a2.56 2.56 0 0 0 2.695.69c-.782-.793-.022-3.696-.804-4.876 1.514.3 7.407 1.155 7.97-.889.61-2.193-1.828-3.944-3.196-4.109.403.914.366 1.576-1.133 1.28-1.499-.296-7.677-1.722-6.993 1.173-1.99 0-2.124 2.896-.67 4.281a14.981 14.981 0 0 1 2.132 2.45Z"/><path fill="#263238" d="M95.734 15.863c-1.192-.296-.819-1.393-.552-1.506-1.115.27-1.52 1.367-.175 1.872 1.345.504.727-.366.727-.366Z"/><path fill="#FF8B7B" d="M95.943 23.23a2.83 2.83 0 0 0 1.396 1.67c.896.457 1.546-.296 1.462-1.24-.069-.85-.614-2.112-1.594-2.193a1.291 1.291 0 0 0-1.264 1.763Z"/><path fill="#263238" d="M101.434 21.347c.022.267.182.472.365.457.183-.015.3-.249.278-.512-.022-.263-.183-.471-.366-.457-.182.015-.299.245-.277.512Zm3.187-.077c.022.267.183.472.366.454.183-.019.296-.245.274-.512-.022-.267-.183-.468-.365-.454-.183.015-.296.245-.275.512Z"/><path fill="#FF5652" d="M103.974 21.628a9.426 9.426 0 0 0 1.463 2.165c-.435.482-1.254.365-1.254.365l-.209-2.53Z"/><path fill="#263238" d="M100.94 20.499a.144.144 0 0 1-.077 0 .156.156 0 0 1-.1-.144c0-.021.004-.042.013-.06a1.573 1.573 0 0 1 1.063-.973.158.158 0 1 1 .063.31 1.255 1.255 0 0 0-.838.78.156.156 0 0 1-.124.087Zm5.531-.424a.152.152 0 0 1-.131-.073 1.24 1.24 0 0 0-.947-.618.156.156 0 0 1-.143-.1.157.157 0 0 1-.011-.061.162.162 0 0 1 .165-.153 1.559 1.559 0 0 1 1.206.767.163.163 0 0 1 .018.118.161.161 0 0 1-.069.098.133.133 0 0 1-.088.022Z"/><path fill="#E0E0E0" d="M97.13 32.914s5.327 8.094 7.353 13.804c1.996-6.701 2.226-12.064.365-13.965-.599.757-3.012 1.78-7.717.16Zm-1.816 5.981-.516 1.462-.511 1.52a75.181 75.181 0 0 0-.94 3.028c-.146.5-.274.998-.391 1.488-.117.49-.23.976-.311 1.44-.08.465-.142.914-.183 1.316-.02.308-.02.617 0 .925l-.19-.533c-.153-.29-.31-.366-.318-.366-.007 0 .051.073.165.154.34.2.702.362 1.078.482.972.327 1.965.588 2.972.782 1.071.212 2.175.366 3.29.549 1.116.183 2.263.31 3.367.468h.052a1.65 1.65 0 0 1 1.053 2.663 1.65 1.65 0 0 1-.969.587 36.068 36.068 0 0 1-3.601.497 37.86 37.86 0 0 1-3.656.157 22.717 22.717 0 0 1-3.875-.34 11.187 11.187 0 0 1-2.194-.647 6.039 6.039 0 0 1-1.323-.753 4.779 4.779 0 0 1-1.426-1.689 2.188 2.188 0 0 1-.15-.388l-.04-.15a10.241 10.241 0 0 1-.347-2.438c-.018-.687.008-1.374.077-2.058.116-1.25.318-2.489.603-3.71a40.79 40.79 0 0 1 .943-3.481 39.25 39.25 0 0 1 1.232-3.389 3.29 3.29 0 0 1 6.145 2.343l-.036.08Z"/><path fill="#FF8B7B" d="m103.346 52.081 3.231.402-1.784 4.135s-2.95-.731-3.162-2.354a.771.771 0 0 1 .121-.512l.833-1.313a.786.786 0 0 1 .761-.358Zm5.655 3.462-.87 1.346a1.308 1.308 0 0 1-1.616.482l-1.722-.753 1.784-4.135 2.015 1.247a1.297 1.297 0 0 1 .597 1.335c-.03.17-.094.333-.188.478Z"/><path fill="#FAFAFA" d="M97.39 31.656a3.039 3.039 0 0 0-1.766.95 10.602 10.602 0 0 0 5.85 3.913c-.168-.56.336-2.194.892-2.779-2.044-.303-4.976-2.084-4.976-2.084Z"/><path fill="#FAFAFA" d="M103.006 31.857a5.029 5.029 0 0 1 1.934.794s2.047 2.285-.366 3.575c.164-.56-1.097-2.05-2.226-2.486 2.04-.303.658-1.883.658-1.883Z"/><path fill="#8A1114" d="M102.574 35.042c-1.616-.867-3.615-1.806-3.06-.29.556 1.518-.179 2.044.545 2.56.724.515 2.194-.9 2.68-1.097.486-.197-.165-1.173-.165-1.173Zm1.144-.012c1.233-.83 2.775-1.729 2.501-.248-.274 1.48.406 1.996-.132 2.497-.537.5-1.919-.9-2.358-1.097-.438-.197-.011-1.151-.011-1.151Z"/><path fill="#8A1114" d="M102.355 34.925c.365-.22 1.257-.497 1.7.098.442.596.3 1.594-.311 1.715a1.232 1.232 0 0 1-1.192-.42 1.095 1.095 0 0 0-.197-1.393Z"/><path fill="#000" d="m92.056 132.714-4.434.124-.234-2.511 5.151.307-.483 2.08Zm20.466-.007-4.789.131-.531-2.175 5.349-.519-.029 2.563Z"/><path fill="#fff" d="M102.084 51.23a30.043 30.043 0 0 0-6.88-1.188c-.497.029-.687 11.263-.647 15.858 0 .622 7.151.498 8.979.216.102-1.283.124-10.65.599-13.578a1.038 1.038 0 0 0-.621-1.119 2.906 2.906 0 0 0-1.43-.19Z"/><path fill="#8A1114" d="M139.516 33.247h-20.297v.577h20.297v-.577Zm-.424.577h-19.449l.746.406h17.961l.742-.406Z"/><path fill="#000" d="M139.092 33.824h-19.449l.746.406h17.961l.742-.406Z" opacity=".2"/><path fill="#8A1114" d="M130.205 25.087a.839.839 0 0 1-.998.825.835.835 0 0 1-.613-1.141.834.834 0 0 1 .774-.518.837.837 0 0 1 .773.514c.042.101.064.21.064.32Zm7.937 5.48a9.218 9.218 0 0 0-3.079-4.416l.227-.29a9.594 9.594 0 0 1 3.203 4.596l-.351.11Zm-4.347-5.257a9.11 9.11 0 0 0-1.276-.582l.124-.343c.458.172.901.378 1.327.618l-.175.307Z"/><path fill="#8A1114" d="M129.368 25.087a8.303 8.303 0 0 0-8.303 8.302h16.605a8.303 8.303 0 0 0-8.302-8.302Z"/><path fill="#fff" d="M122.21 32.647h2.146a.322.322 0 0 0 .31-.263c.432-2.274 1.788-4.256 3.945-5.977a.286.286 0 0 0 .085-.338.288.288 0 0 0-.301-.174 7.577 7.577 0 0 0-6.503 6.394.32.32 0 0 0 .077.251.313.313 0 0 0 .241.107Z" opacity=".3"/><path fill="#263238" d="M102.954 25.109c.171.007.343-.001.512-.026a.088.088 0 0 0 .07-.102.103.103 0 0 0-.11-.077 2.558 2.558 0 0 1-2.128-.665.088.088 0 0 0-.098-.02.1.1 0 0 0-.03.02.094.094 0 0 0-.024.064c0 .023.008.046.024.064a2.718 2.718 0 0 0 1.784.742Z"/></svg>